<?xml version="1.0" encoding="UTF-8"?>
<!DOCTYPE svg PUBLIC "-//W3C//DTD SVG 1.1//EN" "http://www.w3.org/Graphics/SVG/1.1/DTD/svg11.dtd">
<!-- Creator: CorelDRAW -->
<svg xmlns="http://www.w3.org/2000/svg" xml:space="preserve" width="11.6944in" height="8.26388in" style="shape-rendering:geometricPrecision; text-rendering:geometricPrecision; image-rendering:optimizeQuality; fill-rule:evenodd; clip-rule:evenodd"
viewBox="0 0 11.6944 8.26388"
 xmlns:xlink="http://www.w3.org/1999/xlink">
 <defs>
  <style type="text/css">
   <![CDATA[
    .str1 {stroke:#F4F5EB;stroke-width:0.003}
    .str0 {stroke:#F4F5EB;stroke-width:0.0555551}
    .fil1 {fill:none;fill-rule:nonzero}
    .fil0 {fill:#1F1A17;fill-rule:nonzero}
    .fil2 {fill:url(#id1);fill-rule:nonzero}
    .fil3 {fill:url(#id2);fill-rule:nonzero}
    .fil4 {fill:url(#id3);fill-rule:nonzero}
    .fil5 {fill:url(#id4);fill-rule:nonzero}
    .fil17 {fill:url(#id5);fill-rule:nonzero}
    .fil6 {fill:url(#id6);fill-rule:nonzero}
    .fil18 {fill:url(#id7);fill-rule:nonzero}
    .fil7 {fill:url(#id8);fill-rule:nonzero}
    .fil19 {fill:url(#id9);fill-rule:nonzero}
    .fil8 {fill:url(#id10);fill-rule:nonzero}
    .fil20 {fill:url(#id11);fill-rule:nonzero}
    .fil9 {fill:url(#id12);fill-rule:nonzero}
    .fil21 {fill:url(#id13);fill-rule:nonzero}
    .fil10 {fill:url(#id14);fill-rule:nonzero}
    .fil11 {fill:url(#id15);fill-rule:nonzero}
    .fil22 {fill:url(#id16);fill-rule:nonzero}
    .fil12 {fill:url(#id17);fill-rule:nonzero}
    .fil23 {fill:url(#id18);fill-rule:nonzero}
    .fil13 {fill:url(#id19);fill-rule:nonzero}
    .fil14 {fill:url(#id20);fill-rule:nonzero}
    .fil15 {fill:url(#id21);fill-rule:nonzero}
    .fil16 {fill:url(#id22);fill-rule:nonzero}
   ]]>
  </style>
     <clipPath id="id0" style="clip-rule:nonzero">
      <path d="M4.59886 4.30799l3.11094 0 0 1.92117 -3.11094 0 0 -1.92117z"/>
     </clipPath>
  <linearGradient id="id1" gradientUnits="userSpaceOnUse" x1="4.34649" y1="4.8707" x2="4.56078" y2="4.8707">
   <stop offset="0" style="stop-color:white"/>
   <stop offset="1" style="stop-color:white"/>
  </linearGradient>
  <linearGradient id="id2" gradientUnits="userSpaceOnUse" xlink:href="#id1" x1="4.46036" y1="4.59671" x2="4.72211" y2="4.59671">
  </linearGradient>
  <linearGradient id="id3" gradientUnits="userSpaceOnUse" xlink:href="#id1" x1="4.65991" y1="4.37326" x2="4.96301" y2="4.37326">
  </linearGradient>
  <linearGradient id="id4" gradientUnits="userSpaceOnUse" xlink:href="#id1" x1="4.91896" y1="4.18624" x2="5.16022" y2="4.18624">
  </linearGradient>
  <linearGradient id="id5" gradientUnits="userSpaceOnUse" xlink:href="#id1" x1="5.03077" y1="3.4424" x2="5.3007" y2="3.4424">
  </linearGradient>
  <linearGradient id="id6" gradientUnits="userSpaceOnUse" xlink:href="#id1" x1="5.14039" y1="4.03752" x2="5.44037" y2="4.03752">
  </linearGradient>
  <linearGradient id="id7" gradientUnits="userSpaceOnUse" xlink:href="#id1" x1="5.2747" y1="3.29829" x2="5.55724" y2="3.29829">
  </linearGradient>
  <linearGradient id="id8" gradientUnits="userSpaceOnUse" xlink:href="#id1" x1="5.44567" y1="3.95015" x2="5.57228" y2="3.95015">
  </linearGradient>
  <linearGradient id="id9" gradientUnits="userSpaceOnUse" xlink:href="#id1" x1="5.57837" y1="3.22383" x2="5.88399" y2="3.22383">
  </linearGradient>
  <linearGradient id="id10" gradientUnits="userSpaceOnUse" xlink:href="#id1" x1="5.59504" y1="3.8955" x2="5.86905" y2="3.8955">
  </linearGradient>
  <linearGradient id="id11" gradientUnits="userSpaceOnUse" xlink:href="#id1" x1="5.91011" y1="3.19401" x2="6.22896" y2="3.19401">
  </linearGradient>
  <linearGradient id="id12" gradientUnits="userSpaceOnUse" xlink:href="#id1" x1="5.91596" y1="3.86493" x2="6.13923" y2="3.86493">
  </linearGradient>
  <linearGradient id="id13" gradientUnits="userSpaceOnUse" xlink:href="#id1" x1="6.25622" y1="3.23526" x2="6.56105" y2="3.23526">
  </linearGradient>
  <linearGradient id="id14" gradientUnits="userSpaceOnUse" xlink:href="#id1" x1="6.30154" y1="3.89942" x2="6.5454" y2="3.89942">
  </linearGradient>
  <linearGradient id="id15" gradientUnits="userSpaceOnUse" xlink:href="#id1" x1="6.5289" y1="3.97217" x2="6.84549" y2="3.97217">
  </linearGradient>
  <linearGradient id="id16" gradientUnits="userSpaceOnUse" xlink:href="#id1" x1="6.62437" y1="3.32034" x2="7.00267" y2="3.32034">
  </linearGradient>
  <linearGradient id="id17" gradientUnits="userSpaceOnUse" xlink:href="#id1" x1="6.81676" y1="4.05545" x2="7.07709" y2="4.05545">
  </linearGradient>
  <linearGradient id="id18" gradientUnits="userSpaceOnUse" xlink:href="#id1" x1="6.92766" y1="3.54631" x2="7.19767" y2="3.54631">
  </linearGradient>
  <linearGradient id="id19" gradientUnits="userSpaceOnUse" xlink:href="#id1" x1="7.04665" y1="4.24386" x2="7.32072" y2="4.24386">
  </linearGradient>
  <linearGradient id="id20" gradientUnits="userSpaceOnUse" xlink:href="#id1" x1="7.2688" y1="4.42466" x2="7.5473" y2="4.42466">
  </linearGradient>
  <linearGradient id="id21" gradientUnits="userSpaceOnUse" xlink:href="#id1" x1="7.47069" y1="4.62366" x2="7.70111" y2="4.62366">
  </linearGradient>
  <linearGradient id="id22" gradientUnits="userSpaceOnUse" xlink:href="#id1" x1="7.62171" y1="4.85254" x2="7.84335" y2="4.85254">
  </linearGradient>
 </defs>
 <g id="__x0023_Layer_x0020_1">
  <metadata id="CorelCorpID_0Corel-Layer"/>
  <g id="_131762544">
   <g>
    <g style="clip-path:url(#id0)">
     <image id="_131762640" transform="matrix(1 0 0 1 -1.24837 2.09698)" x="5.84722" y="2.21101" width="3.11074" height="1.92093" xlink:href="WINGZ_Images\WINGZ_ImgID1.png"/>
    </g>
    <path id="_131762616" class="fil0" d="M6.2558 5.46683l-0.0411024 0 -0.00565748 0.0192795 -0.0368622 0 0.043878 -0.11676 0.0393346 0 0.0439016 0.11676 -0.0377559 0 -0.00573622 -0.0192795zm-0.00755906 -0.025252l0 0 -0.0129134 -0.0419685 -0.0128307 0.0419685 0.0257441 0z"/>
    <polygon id="_131762736" class="fil0" points="6.35704,5.36935 6.4667,5.36935 6.4667,5.39819 6.42989,5.39819 6.42989,5.48611 6.39382,5.48611 6.39382,5.39819 6.35704,5.39819 "/>
    <path id="_131762592" class="fil0" d="M6.61516 5.4384l0.0316142 0.00957087c-0.00211811,0.00885827 -0.00546457,0.0162598 -0.0100315,0.0222126 -0.00456693,0.00595276 -0.010248,0.0104331 -0.0170157,0.0134528 -0.00676772,0.00304724 -0.0153858,0.00453937 -0.0258268,0.00453937 -0.0126929,0 -0.0230787,-0.00185039 -0.0310984,-0.00551575 -0.00804331,-0.00370079 -0.0150039,-0.0101969 -0.0208504,-0.0194961 -0.00581496,-0.00929134 -0.00875197,-0.0211772 -0.00875197,-0.0356654 0,-0.0193268 0.0051378,-0.0341969 0.0154134,-0.0445512 0.0102756,-0.0103819 0.0248189,-0.0155748 0.0436024,-0.0155748 0.0147087,0 0.0262598,0.00295669 0.034689,0.00890945 0.0084252,0.00595669 0.0146811,0.0150906 0.0187559,0.0274055l-0.0318583 0.00709449c-0.00111417,-0.00356299 -0.00228346,-0.00616929 -0.00350787,-0.00783071 -0.00201181,-0.00274409 -0.00448425,-0.0048622 -0.0073937,-0.0063622 -0.00293701,-0.00149213 -0.00619685,-0.00222835 -0.00981496,-0.00222835 -0.00815354,0 -0.0144331,0.00329134 -0.0187835,0.00987008 -0.0032874,0.0048937 -0.00494882,0.0125591 -0.00494882,0.0230236 0,0.0129685 0.00198425,0.0218346 0.00590157,0.0266457 0.00394094,0.00480709 0.00946063,0.00720079 0.0165551,0.00720079 0.00690551,0 0.012122,-0.00193307 0.0156575,-0.0058189 0.00353543,-0.00385827 0.00609055,-0.00948819 0.00769291,-0.0168819z"/>
   </g>
   <g>
    <path id="_131762904" class="fil1 str0" d="M4.29272 4.03576c-0.000464567,-0.0086378 -0.000952756,-0.0178819 -0.00122047,-0.0266693 -0.0196457,-0.663335 0.748508,-1.21076 1.71537,-1.22244 0.966862,-0.011685 1.76689,0.516776 1.78654,1.18011"/>
    <line id="_131763000" class="fil1 str0" x1="4.30031" y1="4.00371" x2="4.81239" y2= "3.99752" />
    <line id="_131763072" class="fil1 str0" x1="7.79964" y1="3.9231" x2="7.27869" y2= "3.92351" />
    <path id="_131763144" class="fil1 str0" d="M4.56595 6.28475c-0.140528,-0.369555 -0.146445,-0.773831 -0.0165827,-1.14044 0.304028,-0.858252 1.25709,-1.2912 2.1283,-0.966819 0.871201,0.32439 1.33117,1.28347 1.02714,2.14173"/>
    <line id="_131763216" class="fil1 str0" x1="4.03947" y1="6.31839" x2="8.20868" y2= "6.31838" />
    <path id="_131763288" class="fil1 str0" d="M4.0749 6.31835c-0.126039,-0.393071 -0.138398,-0.81165 -0.0349449,-1.20545 0.299941,-1.14179 1.47657,-1.80025 2.62754,-1.47042 1.15097,0.329843 1.84113,1.52328 1.54119,2.66506"/>
    <path id="_131763456" class="fil2" d="M4.43143 4.98721l0.0289724 -0.0700315c0.00852756,0.00218898 0.0159094,0.00192913 0.0221732,-0.000708661 0.0101024,-0.00428346 0.0183543,-0.0133976 0.0247953,-0.0271969 0.0047874,-0.0102717 0.00679921,-0.0189882 0.00600787,-0.0261772 -0.000822835,-0.00712598 -0.00347244,-0.0117362 -0.00794488,-0.0138228 -0.00424409,-0.00197638 -0.0092874,-0.00115354 -0.0151378,0.00259843 -0.00585039,0.00375984 -0.014752,0.0145551 -0.0267559,0.0325039 -0.0197559,0.0292874 -0.0368858,0.048748 -0.0514685,0.0583504 -0.0146417,0.00971654 -0.0283661,0.0115827 -0.0412205,0.00558661 -0.00845669,-0.00394094 -0.0148307,-0.0111457 -0.0190787,-0.0215984 -0.00426378,-0.0104488 -0.00528346,-0.0236299 -0.00309843,-0.0396063 0.00222441,-0.0159606 0.009,-0.0360866 0.0203228,-0.060378 0.0139134,-0.0298268 0.0284291,-0.0507717 0.0435315,-0.0627795 0.0151024,-0.0120079 0.0318661,-0.0155 0.0502835,-0.0105512l-0.0289016 0.0692717c-0.00822047,-0.00165354 -0.0153858,-0.000362205 -0.0214646,0.00388189 -0.00601575,0.00420866 -0.0114173,0.0114134 -0.0161614,0.0215709 -0.0039252,0.00841732 -0.00563386,0.0152953 -0.00509449,0.0207047 0.000511811,0.00540157 0.00258661,0.00894882 0.00618504,0.010626 0.00260236,0.0012126 0.00574409,0.000562992 0.0094685,-0.00193307 0.00377953,-0.00240945 0.00951575,-0.00952362 0.0173425,-0.0214134 0.0194843,-0.0292874 0.0348543,-0.0495669 0.0461102,-0.0609213 0.0112559,-0.0113543 0.0219331,-0.0184803 0.0320945,-0.0212874 0.010122,-0.00281496 0.0197008,-0.00218898 0.028685,0.002 0.0105236,0.00490551 0.0182913,0.013626 0.023311,0.0260197 0.00506693,0.0124134 0.00639764,0.0271299 0.00404724,0.0441575 -0.00232677,0.0169685 -0.00876772,0.0367913 -0.019311,0.0593937 -0.0184921,0.0396614 -0.0366654,0.0646535 -0.0545787,0.0748898 -0.0178937,0.010311 -0.0355748,0.0125827 -0.0531142,0.00685039z"/>
    <path id="_131763696" class="fil3" d="M4.56108 4.52185l0.047811 -0.0634409 0.0863307 0.0650591c0.00856299,0.00645276 0.0151772,0.0144409 0.0199449,0.0239646 0.00473622,0.00949606 0.00694094,0.0204646 0.00653937,0.0328465 -0.000405512,0.0123858 -0.00280709,0.0238583 -0.00719291,0.0345197 -0.00611024,0.0147638 -0.0156378,0.0307756 -0.0286969,0.0481063 -0.00754331,0.0100118 -0.0162362,0.020563 -0.0261654,0.0316339 -0.00988583,0.0110866 -0.0192756,0.0194764 -0.0281929,0.0252126 -0.0089252,0.00574016 -0.0185945,0.00986614 -0.0289606,0.0124055 -0.010378,0.00254724 -0.0193307,0.00285827 -0.0268937,0.000976378 -0.0121693,-0.00300787 -0.0218031,-0.00718898 -0.0289134,-0.0125551l-0.0863346 -0.0650551 0.0478031 -0.063437 0.0883898 0.0666063c0.0079252,0.0059685 0.0164409,0.00750394 0.0255079,0.00465748 0.0091378,-0.00287402 0.0178622,-0.00981102 0.0261929,-0.0208701 0.00822441,-0.0109173 0.0125276,-0.021189 0.0128307,-0.0307126 0.000307087,-0.00945276 -0.00358268,-0.0172638 -0.0116063,-0.023311l-0.0883937 -0.0666063z"/>
    <polygon id="_131764032" class="fil4" points="4.65991,4.39359 4.71339,4.34195 4.85279,4.34675 4.78313,4.27461 4.83707,4.22252 4.96301,4.35293 4.90906,4.40502 4.77053,4.40043 4.83967,4.47203 4.78585,4.524 "/>
    <path id="_131763552" class="fil5" d="M4.95924 4.2787l0.0601102 -0.0461654c0.00629134,0.00615748 0.012815,0.00962598 0.0195591,0.0104764 0.0108937,0.00133465 0.0225945,-0.00242913 0.0350709,-0.0111654 0.00928346,-0.00649606 0.0153819,-0.0130394 0.0182913,-0.0196575 0.00285039,-0.00658268 0.0028622,-0.0119016 3.14961e-005,-0.0159409 -0.00268898,-0.00384252 -0.0074685,-0.00564961 -0.0144094,-0.00532677 -0.00694488,0.000330709 -0.0200512,0.00523228 -0.0394252,0.0147795 -0.031748,0.0154803 -0.0563189,0.0237677 -0.073748,0.0247913 -0.0175354,0.00109449 -0.0303543,-0.00414961 -0.0384921,-0.0157677 -0.00535039,-0.00764173 -0.00726772,-0.0170709 -0.00572441,-0.028248 0.00153543,-0.0111811 0.00724016,-0.0231063 0.017126,-0.0358465 0.00990945,-0.0127126 0.0258346,-0.026748 0.0477913,-0.042122 0.0269567,-0.018874 0.0500039,-0.0297559 0.0690827,-0.0326063 0.0190827,-0.00285039 0.0353504,0.00250787 0.0488268,0.0160039l-0.0596693 0.0455394c-0.00629134,-0.00553937 -0.0131378,-0.008 -0.0205236,-0.00737008 -0.00731496,0.000637795 -0.0156024,0.00417323 -0.0247835,0.0106024 -0.00761024,0.00532283 -0.0125315,0.0104213 -0.0147598,0.0153819 -0.00226772,0.00493307 -0.00224409,0.00903937 3.54331e-005,0.0122913 0.00164567,0.00235039 0.00469291,0.00335827 0.00916535,0.00306693 0.00448031,-0.000200787 0.0130079,-0.00349606 0.0257323,-0.00987795 0.0315079,-0.015622 0.0549606,-0.0255039 0.0703858,-0.0297008 0.0154213,-0.00420472 0.0282402,-0.00503543 0.038437,-0.00238976 0.0101772,0.00261417 0.0181575,0.00794882 0.0238504,0.0160748 0.00665354,0.00950394 0.00902362,0.0209409 0.00717717,0.034185 -0.00182677,0.0132835 -0.00802756,0.0266929 -0.0185787,0.0402677 -0.0104961,0.0135354 -0.0259843,0.0274724 -0.0464173,0.0417795 -0.0358465,0.0250984 -0.0640827,0.0376614 -0.0847126,0.0375669 -0.0206535,-1.9685e-005 -0.0371024,-0.0068937 -0.0494291,-0.020622z"/>
    <polygon id="_131763504" class="fil6" points="5.14039,4.00745 5.21249,3.97383 5.2393,4.03133 5.31814,3.99457 5.29133,3.93707 5.36376,3.90329 5.44037,4.0676 5.36794,4.10137 5.33696,4.03493 5.25812,4.07169 5.28911,4.13813 5.21701,4.17175 "/>
    <polygon id="_131764392" class="fil7" points="5.44567,3.874 5.52231,3.85202 5.57228,4.02629 5.49564,4.04827 "/>
    <polygon id="_131763480" class="fil8" points="5.59504,3.82761 5.66825,3.8147 5.78113,3.89663 5.76371,3.79786 5.83757,3.78484 5.86905,3.96338 5.7952,3.97641 5.68292,3.89514 5.7002,3.99315 5.62652,4.00615 "/>
    <polygon id="_131764056" class="fil9" points="5.91596,3.77806 6.129,3.77062 6.13036,3.8093 5.997,3.81396 5.998,3.84278 6.12172,3.83845 6.12301,3.87541 5.99929,3.87973 6.00054,3.91541 6.1378,3.91062 6.13923,3.95167 5.92228,3.95924 "/>
    <polygon id="_131764320" class="fil10" points="6.33613,3.78972 6.5454,3.8304 6.53801,3.8684 6.40702,3.84293 6.40152,3.87124 6.52304,3.89486 6.51598,3.93115 6.39446,3.90753 6.38764,3.94259 6.52246,3.96879 6.51463,4.00911 6.30154,3.96769 "/>
    <polygon id="_131763600" class="fil11" points="6.59557,3.84221 6.67839,3.87072 6.70343,3.93831 6.76341,3.9 6.84549,3.92826 6.74118,3.9852 6.79361,4.10214 6.70909,4.07303 6.68005,4.00143 6.6129,4.03991 6.5289,4.01098 6.64366,3.95059 "/>
    <path id="_131764224" class="fil12" d="M6.90187 3.95666l0.116772 0.0620827c0.0254016,0.0135118 0.0422008,0.0278937 0.050315,0.0431575 0.00813386,0.0152205 0.00802362,0.0307441 -0.000318898,0.046437 -0.00860236,0.0161732 -0.0222047,0.0251457 -0.0408543,0.0268937 -0.0186457,0.00174803 -0.0421299,-0.00490157 -0.0704528,-0.0199606l-0.0384252 -0.0204331 -0.0315906 0.0594055 -0.0705591 -0.0375118 0.0851142 -0.160071zm0.0342756 0.105752l0 0 0.0171969 0.00914567c0.0135551,0.00720866 0.0239016,0.0106024 0.0311693,0.0102126 0.00722047,-0.000413386 0.0122283,-0.00320079 0.0149646,-0.00834252 0.00266929,-0.00502756 0.00257087,-0.0105787 -0.000346457,-0.0165787 -0.00285433,-0.00601575 -0.0108622,-0.0125197 -0.0239882,-0.0195l-0.0200118 -0.0106417 -0.0189843 0.0357047z"/>
    <path id="_131764416" class="fil13" d="M7.04665 4.24004l0.10911 -0.144783 0.105902 0.0797992c0.019626,0.0147913 0.0337795,0.0272953 0.042311,0.0374882 0.00861024,0.010185 0.013689,0.0208819 0.0152087,0.032122 0.00153937,0.0112047 -0.00119685,0.0214016 -0.00812992,0.0306024 -0.00607087,0.00805906 -0.0137244,0.0131299 -0.0229449,0.0153189 -0.00928346,0.00215354 -0.0195433,0.0018189 -0.0307598,-0.000925197 -0.00718504,-0.00181496 -0.0160551,-0.00549213 -0.0266063,-0.0111142 0.00622047,0.00748425 0.010378,0.0134252 0.0125276,0.0178465 0.00140551,0.00290551 0.00290551,0.00800394 0.00443701,0.0152323 0.00150394,0.00726772 0.00223228,0.0124646 0.00212205,0.0157087l-0.000889764 0.0651339 -0.0718189 -0.0541181 -0.000594488 -0.0698425c-1.5748e-005,-0.00894488 -0.00101969,-0.0155669 -0.00312992,-0.0198504 -0.00287008,-0.00565748 -0.00724803,-0.0107047 -0.0130394,-0.0150669l-0.0056063 -0.00422047 -0.0442756 0.0587559 -0.0638228 -0.0480866zm0.128724 -0.0380433l0 0 0.026815 0.0202087c0.00287008,0.00216535 0.00895276,0.00574016 0.0182795,0.0107047 0.00466929,0.00256693 0.00925984,0.00364567 0.0137717,0.00324016 0.00445669,-0.000444882 0.00790945,-0.00222835 0.0102953,-0.00539764 0.00353543,-0.00468898 0.00412205,-0.00984646 0.00178346,-0.0155157 -0.00230315,-0.00570472 -0.00926378,-0.0129016 -0.0208504,-0.0216339l-0.0279173 -0.0210354 -0.0221772 0.0294291z"/>
    <polygon id="_131763792" class="fil14" points="7.39921,4.28361 7.5473,4.43696 7.51946,4.46385 7.42676,4.36785 7.40602,4.38788 7.49201,4.47693 7.46542,4.50262 7.37942,4.41357 7.35373,4.43837 7.44914,4.53717 7.41959,4.5657 7.2688,4.40954 "/>
    <path id="_131764152" class="fil15" d="M7.48976 4.54848l0.0492441 0.0576102c-0.0058189,0.0066063 -0.00894488,0.0133071 -0.00943701,0.0200787 -0.000767717,0.0109488 0.0036063,0.0224409 0.0129843,0.0344449 0.00697244,0.0089252 0.0138189,0.0146772 0.0205866,0.0172323 0.00672047,0.00250394 0.0120315,0.00224016 0.0159252,-0.00080315 0.00368898,-0.00288583 0.00524409,-0.00775197 0.00455512,-0.0146654 -0.000692913,-0.00691732 -0.00627165,-0.019752 -0.016811,-0.0385984 -0.0171299,-0.0308976 -0.026689,-0.0549961 -0.028626,-0.0723504 -0.00201181,-0.0174528 0.00255512,-0.0305315 0.0137323,-0.0392638 0.00735433,-0.00574016 0.0166654,-0.00814961 0.0279094,-0.00719291 0.0112441,0.000948819 0.0234567,0.00601969 0.0366969,0.0152244 0.0132126,0.00922835 0.0280709,0.0243976 0.044563,0.0455197 0.0202638,0.0259331 0.0323386,0.048378 0.0361811,0.0672835 0.00384646,0.0189094 -0.00065748,0.0354331 -0.0134291,0.0495984l-0.0485984 -0.0572008c0.00520472,-0.0065748 0.00730709,-0.0135472 0.0062874,-0.0208898 -0.00101969,-0.00727165 -0.00498425,-0.0153583 -0.0118858,-0.0241929 -0.00572047,-0.0073189 -0.0110669,-0.0119685 -0.0161378,-0.013937 -0.00504331,-0.002 -0.00914173,-0.00175984 -0.0122677,0.000685039 -0.00226378,0.00176378 -0.00311417,0.0048622 -0.00258268,0.00931496 0.000437008,0.00445669 0.00416929,0.0128031 0.0112126,0.0251772 0.017248,0.0306496 0.0283425,0.0535551 0.0333465,0.0687362 0.00500394,0.0151811 0.00650394,0.027937 0.0043937,0.0382598 -0.00207874,0.0102953 -0.00698819,0.0185472 -0.0148071,0.0246535 -0.00914567,0.00714567 -0.0204409,0.0101063 -0.0337638,0.00895669 -0.0133583,-0.00112205 -0.0270748,-0.00661417 -0.041185,-0.0164409 -0.014063,-0.00977559 -0.0287953,-0.0245157 -0.0441496,-0.0441693 -0.0269409,-0.0344843 -0.0409567,-0.0620236 -0.0419528,-0.0826299 -0.00106299,-0.0206299 0.00494882,-0.0374134 0.0180157,-0.0504409z"/>
    <path id="_131763888" class="fil16" d="M7.64845 4.76407l0.0407441 0.0639055c-0.0066811,0.00573228 -0.0107087,0.0119291 -0.0121378,0.0185709 -0.00228346,0.0107323 0.000444882,0.0227205 0.00806299,0.0359134 0.00566142,0.00981102 0.0116457,0.0164646 0.0179882,0.019937 0.00631102,0.00340945 0.0116063,0.00388189 0.0158858,0.00141339 0.00405118,-0.00233858 0.00626772,-0.00694488 0.00655118,-0.0138858 0.000275591,-0.00694882 -0.00346063,-0.0204291 -0.0112756,-0.040563 -0.0126614,-0.0329803 -0.0187795,-0.0581772 -0.0182795,-0.0756299 0.000440945,-0.0175669 0.00677953,-0.029878 0.0190669,-0.0369724 0.0080748,-0.00466142 0.0176339,-0.00575197 0.0286339,-0.00324016 0.0110039,0.00250787 0.0223898,0.00922835 0.0342205,0.020189 0.0117992,0.0109764 0.0244016,0.028063 0.0377992,0.0512756 0.0164567,0.0285 0.0252835,0.0524055 0.0264646,0.0716654 0.00117323,0.0192598 -0.00558661,0.0349961 -0.0202047,0.047248l-0.0401693 -0.0634134c0.0060748,-0.00578346 0.00912598,-0.0123937 0.0091378,-0.0198071 0,-0.00734252 -0.00279528,-0.0158976 -0.00840551,-0.0256102 -0.0046378,-0.00804331 -0.00929134,-0.0133937 -0.0140394,-0.0160472 -0.0047126,-0.00268504 -0.00880709,-0.00301969 -0.0122441,-0.00103543 -0.00248819,0.00144094 -0.00375984,0.00438976 -0.00385433,0.00886614 -0.000188976,0.00447638 0.00235039,0.0132638 0.00759449,0.0264921 0.0128228,0.032752 0.0206142,0.0569764 0.0234606,0.0727087 0.00284646,0.0157323 0.00255512,0.0285669 -0.000972441,0.0385 -0.00349213,0.00990945 -0.00950394,0.0173976 -0.0180945,0.0223543 -0.0100472,0.00580315 -0.0216457,0.00716535 -0.0346772,0.00417323 -0.0130787,-0.00297638 -0.0258937,-0.0103228 -0.0385,-0.0220118 -0.012563,-0.0116417 -0.0250984,-0.0282874 -0.0375748,-0.0498898 -0.021878,-0.0378976 -0.0319252,-0.067122 -0.0300433,-0.0876654 0.0018189,-0.0205669 0.0101063,-0.0363583 0.0248622,-0.0474409z"/>
    <line id="_131764584" class="fil1 str1" x1="4.43143" y1="4.98721" x2="4.4604" y2= "4.91718" />
    <path id="_131764296" class="fil1 str1" d="M4.4604 4.91718c0.00852756,0.00218898 0.0159094,0.00192913 0.0221732,-0.000708661 0.0101024,-0.00428346 0.0183543,-0.0133976 0.0247953,-0.0271969 0.0047874,-0.0102717 0.00679921,-0.0189882 0.00600787,-0.0261772 -0.000822835,-0.00712598 -0.00347244,-0.0117362 -0.00794488,-0.0138228 -0.00424409,-0.00197638 -0.0092874,-0.00115354 -0.0151378,0.00259843 -0.00585039,0.00375984 -0.014752,0.0145551 -0.0267559,0.0325039 -0.0197559,0.0292874 -0.0368858,0.048748 -0.0514685,0.0583504 -0.0146417,0.00971654 -0.0283661,0.0115827 -0.0412205,0.00558661 -0.00845669,-0.00394094 -0.0148307,-0.0111457 -0.0190787,-0.0215984 -0.00426378,-0.0104488 -0.00528346,-0.0236299 -0.00309843,-0.0396063 0.00222441,-0.0159606 0.009,-0.0360866 0.0203228,-0.060378 0.0139134,-0.0298268 0.0284291,-0.0507717 0.0435315,-0.0627795 0.0151024,-0.0120079 0.0318661,-0.0155 0.0502835,-0.0105512"/>
    <line id="_131763912" class="fil1 str1" x1="4.46281" y1="4.7534" x2="4.43391" y2= "4.82267" />
    <path id="_131630944" class="fil1 str1" d="M4.43391 4.82267c-0.00822047,-0.00165354 -0.0153858,-0.000362205 -0.0214646,0.00388189 -0.00601575,0.00420866 -0.0114173,0.0114134 -0.0161614,0.0215709 -0.0039252,0.00841732 -0.00563386,0.0152953 -0.00509449,0.0207047 0.000511811,0.00540157 0.00258661,0.00894882 0.00618504,0.010626 0.00260236,0.0012126 0.00574409,0.000562992 0.0094685,-0.00193307 0.00377953,-0.00240945 0.00951575,-0.00952362 0.0173425,-0.0214134 0.0194843,-0.0292874 0.0348543,-0.0495669 0.0461102,-0.0609213 0.0112559,-0.0113543 0.0219331,-0.0184803 0.0320945,-0.0212874 0.010122,-0.00281496 0.0197008,-0.00218898 0.028685,0.002 0.0105236,0.00490551 0.0182913,0.013626 0.023311,0.0260197 0.00506693,0.0124134 0.00639764,0.0271299 0.00404724,0.0441575 -0.00232677,0.0169685 -0.00876772,0.0367913 -0.019311,0.0593937 -0.0184921,0.0396614 -0.0366654,0.0646535 -0.0545787,0.0748898 -0.0178937,0.010311 -0.0355748,0.0125827 -0.0531142,0.00685039"/>
    <polyline id="_131630056" class="fil1 str1" points="4.56108,4.52185 4.60889,4.45841 4.69522,4.52347 "/>
    <path id="_131631088" class="fil1 str1" d="M4.69522 4.52347c0.00856299,0.00645276 0.0151772,0.0144409 0.0199449,0.0239646 0.00473622,0.00949606 0.00694094,0.0204646 0.00653937,0.0328465 -0.000405512,0.0123858 -0.00280709,0.0238583 -0.00719291,0.0345197 -0.00611024,0.0147638 -0.0156378,0.0307756 -0.0286969,0.0481063 -0.00754331,0.0100118 -0.0162362,0.020563 -0.0261654,0.0316339 -0.00988583,0.0110866 -0.0192756,0.0194764 -0.0281929,0.0252126 -0.0089252,0.00574016 -0.0185945,0.00986614 -0.0289606,0.0124055 -0.010378,0.00254724 -0.0193307,0.00285827 -0.0268937,0.000976378 -0.0121693,-0.00300787 -0.0218031,-0.00718898 -0.0289134,-0.0125551"/>
    <polyline id="_131630560" class="fil1 str1" points="4.54669,4.72058 4.46036,4.65552 4.50816,4.59209 4.59655,4.65869 "/>
    <path id="_131629480" class="fil1 str1" d="M4.59655 4.65869c0.0079252,0.0059685 0.0164409,0.00750394 0.0255079,0.00465748 0.0091378,-0.00287402 0.0178622,-0.00981102 0.0261929,-0.0208701 0.00822441,-0.0109173 0.0125276,-0.021189 0.0128307,-0.0307126 0.000307087,-0.00945276 -0.00358268,-0.0172638 -0.0116063,-0.023311"/>
    <line id="_131629624" class="fil1 str1" x1="4.64948" y1="4.58846" x2="4.56108" y2= "4.52185" />
    <polygon id="_131629984" class="fil1 str1" points="4.65991,4.39359 4.71339,4.34195 4.85279,4.34675 4.78313,4.27461 4.83707,4.22252 4.96301,4.35293 4.90906,4.40502 4.77053,4.40043 4.83967,4.47203 4.78585,4.524 "/>
    <line id="_131630344" class="fil1 str1" x1="4.95924" y1="4.2787" x2="5.01935" y2= "4.23254" />
    <path id="_131630728" class="fil1 str1" d="M5.01935 4.23254c0.00629134,0.00615748 0.012815,0.00962598 0.0195591,0.0104764 0.0108937,0.00133465 0.0225945,-0.00242913 0.0350709,-0.0111654 0.00928346,-0.00649606 0.0153819,-0.0130394 0.0182913,-0.0196575 0.00285039,-0.00658268 0.0028622,-0.0119016 3.14961e-005,-0.0159409 -0.00268898,-0.00384252 -0.0074685,-0.00564961 -0.0144094,-0.00532677 -0.00694488,0.000330709 -0.0200512,0.00523228 -0.0394252,0.0147795 -0.031748,0.0154803 -0.0563189,0.0237677 -0.073748,0.0247913 -0.0175354,0.00109449 -0.0303543,-0.00414961 -0.0384921,-0.0157677 -0.00535039,-0.00764173 -0.00726772,-0.0170709 -0.00572441,-0.028248 0.00153543,-0.0111811 0.00724016,-0.0231063 0.017126,-0.0358465 0.00990945,-0.0127126 0.0258346,-0.026748 0.0477913,-0.042122 0.0269567,-0.018874 0.0500039,-0.0297559 0.0690827,-0.0326063 0.0190827,-0.00285039 0.0353504,0.00250787 0.0488268,0.0160039"/>
    <line id="_131630872" class="fil1 str1" x1="5.10333" y1="4.09191" x2="5.04366" y2= "4.13745" />
    <path id="_131629528" class="fil1 str1" d="M5.04366 4.13745c-0.00629134,-0.00553937 -0.0131378,-0.008 -0.0205236,-0.00737008 -0.00731496,0.000637795 -0.0156024,0.00417323 -0.0247835,0.0106024 -0.00761024,0.00532283 -0.0125315,0.0104213 -0.0147598,0.0153819 -0.00226772,0.00493307 -0.00224409,0.00903937 3.54331e-005,0.0122913 0.00164567,0.00235039 0.00469291,0.00335827 0.00916535,0.00306693 0.00448031,-0.000200787 0.0130079,-0.00349606 0.0257323,-0.00987795 0.0315079,-0.015622 0.0549606,-0.0255039 0.0703858,-0.0297008 0.0154213,-0.00420472 0.0282402,-0.00503543 0.038437,-0.00238976 0.0101772,0.00261417 0.0181575,0.00794882 0.0238504,0.0160748 0.00665354,0.00950394 0.00902362,0.0209409 0.00717717,0.034185 -0.00182677,0.0132835 -0.00802756,0.0266929 -0.0185787,0.0402677 -0.0104961,0.0135354 -0.0259843,0.0274724 -0.0464173,0.0417795 -0.0358465,0.0250984 -0.0640827,0.0376614 -0.0847126,0.0375669 -0.0206535,-1.9685e-005 -0.0371024,-0.0068937 -0.0494291,-0.020622"/>
    <polygon id="_131629648" class="fil1 str1" points="5.14039,4.00745 5.21249,3.97383 5.2393,4.03133 5.31814,3.99457 5.29133,3.93707 5.36376,3.90329 5.44037,4.0676 5.36794,4.10137 5.33696,4.03493 5.25812,4.07169 5.28911,4.13813 5.21701,4.17175 "/>
    <polygon id="_131629744" class="fil1 str1" points="5.44567,3.874 5.52231,3.85202 5.57228,4.02629 5.49564,4.04827 "/>
    <polygon id="_131629864" class="fil1 str1" points="5.59504,3.82761 5.66825,3.8147 5.78113,3.89663 5.76371,3.79786 5.83757,3.78484 5.86905,3.96338 5.7952,3.97641 5.68292,3.89514 5.7002,3.99315 5.62652,4.00615 "/>
    <polygon id="_131629960" class="fil1 str1" points="5.91596,3.77806 6.129,3.77062 6.13036,3.8093 5.997,3.81396 5.998,3.84278 6.12172,3.83845 6.12301,3.87541 5.99929,3.87973 6.00054,3.91541 6.1378,3.91062 6.13923,3.95167 5.92228,3.95924 "/>
    <polygon id="_131630080" class="fil1 str1" points="6.33613,3.78972 6.5454,3.8304 6.53801,3.8684 6.40702,3.84293 6.40152,3.87124 6.52304,3.89486 6.51598,3.93115 6.39446,3.90753 6.38764,3.94259 6.52246,3.96879 6.51463,4.00911 6.30154,3.96769 "/>
    <polygon id="_131630176" class="fil1 str1" points="6.59557,3.84221 6.67839,3.87072 6.70343,3.93831 6.76341,3.9 6.84549,3.92826 6.74118,3.9852 6.79361,4.10214 6.70909,4.07303 6.68005,4.00143 6.6129,4.03991 6.5289,4.01098 6.64366,3.95059 "/>
    <line id="_131630296" class="fil1 str1" x1="6.90187" y1="3.95666" x2="7.01864" y2= "4.01874" />
    <path id="_131630392" class="fil1 str1" d="M7.01864 4.01874c0.0254016,0.0135118 0.0422008,0.0278937 0.050315,0.0431575 0.00813386,0.0152205 0.00802362,0.0307441 -0.000318898,0.046437 -0.00860236,0.0161732 -0.0222047,0.0251457 -0.0408543,0.0268937 -0.0186457,0.00174803 -0.0421299,-0.00490157 -0.0704528,-0.0199606"/>
    <polyline id="_131630512" class="fil1 str1" points="6.95733,4.11527 6.91891,4.09484 6.88731,4.15424 6.81676,4.11673 6.90187,3.95666 "/>
    <line id="_131630608" class="fil1 str1" x1="6.93615" y1="4.06241" x2="6.95334" y2= "4.07156" />
    <path id="_131630752" class="fil1 str1" d="M6.95334 4.07156c0.0135551,0.00720866 0.0239016,0.0106024 0.0311693,0.0102126 0.00722047,-0.000413386 0.0122283,-0.00320079 0.0149646,-0.00834252 0.00266929,-0.00502756 0.00257087,-0.0105787 -0.000346457,-0.0165787 -0.00285433,-0.00601575 -0.0108622,-0.0125197 -0.0239882,-0.0195"/>
    <polyline id="_131630848" class="fil1 str1" points="6.97514,4.03735 6.95513,4.02671 6.93615,4.06241 "/>
    <polyline id="_131630968" class="fil1 str1" points="7.04665,4.24004 7.15576,4.09526 7.26166,4.17506 "/>
    <path id="_131631064" class="fil1 str1" d="M7.26166 4.17506c0.019626,0.0147913 0.0337795,0.0272953 0.042311,0.0374882 0.00861024,0.010185 0.013689,0.0208819 0.0152087,0.032122 0.00153937,0.0112047 -0.00119685,0.0214016 -0.00812992,0.0306024 -0.00607087,0.00805906 -0.0137244,0.0131299 -0.0229449,0.0153189 -0.00928346,0.00215354 -0.0195433,0.0018189 -0.0307598,-0.000925197 -0.00718504,-0.00181496 -0.0160551,-0.00549213 -0.0266063,-0.0111142 0.00622047,0.00748425 0.010378,0.0134252 0.0125276,0.0178465 0.00140551,0.00290551 0.00290551,0.00800394 0.00443701,0.0152323 0.00150394,0.00726772 0.00223228,0.0124646 0.00212205,0.0157087"/>
    <polyline id="_131631184" class="fil1 str1" points="7.24983,4.32733 7.24894,4.39247 7.17712,4.33835 7.17652,4.26851 "/>
    <path id="_131631280" class="fil1 str1" d="M7.17652 4.26851c-1.5748e-005,-0.00894488 -0.00101969,-0.0155669 -0.00312992,-0.0198504 -0.00287008,-0.00565748 -0.00724803,-0.0107047 -0.0130394,-0.0150669"/>
    <polyline id="_131631400" class="fil1 str1" points="7.16035,4.23359 7.15475,4.22937 7.11047,4.28813 7.04665,4.24004 "/>
    <line id="_132394848" class="fil1 str1" x1="7.17537" y1="4.202" x2="7.20219" y2= "4.2222" />
    <path id="_132394632" class="fil1 str1" d="M7.20219 4.2222c0.00287008,0.00216535 0.00895276,0.00574016 0.0182795,0.0107047 0.00466929,0.00256693 0.00925984,0.00364567 0.0137717,0.00324016 0.00445669,-0.000444882 0.00790945,-0.00222835 0.0102953,-0.00539764 0.00353543,-0.00468898 0.00412205,-0.00984646 0.00178346,-0.0155157 -0.00230315,-0.00570472 -0.00926378,-0.0129016 -0.0208504,-0.0216339"/>
    <polyline id="_132394416" class="fil1 str1" points="7.22547,4.1936 7.19755,4.17257 7.17537,4.202 "/>
    <polygon id="_132394200" class="fil1 str1" points="7.39921,4.28361 7.5473,4.43696 7.51946,4.46385 7.42676,4.36785 7.40602,4.38788 7.49201,4.47693 7.46542,4.50262 7.37942,4.41357 7.35373,4.43837 7.44914,4.53717 7.41959,4.5657 7.2688,4.40954 "/>
    <line id="_132393984" class="fil1 str1" x1="7.48976" y1="4.54848" x2="7.53901" y2= "4.60609" />
    <path id="_132393768" class="fil1 str1" d="M7.53901 4.60609c-0.0058189,0.0066063 -0.00894488,0.0133071 -0.00943701,0.0200787 -0.000767717,0.0109488 0.0036063,0.0224409 0.0129843,0.0344449 0.00697244,0.0089252 0.0138189,0.0146772 0.0205866,0.0172323 0.00672047,0.00250394 0.0120315,0.00224016 0.0159252,-0.00080315 0.00368898,-0.00288583 0.00524409,-0.00775197 0.00455512,-0.0146654 -0.000692913,-0.00691732 -0.00627165,-0.019752 -0.016811,-0.0385984 -0.0171299,-0.0308976 -0.026689,-0.0549961 -0.028626,-0.0723504 -0.00201181,-0.0174528 0.00255512,-0.0305315 0.0137323,-0.0392638 0.00735433,-0.00574016 0.0166654,-0.00814961 0.0279094,-0.00719291 0.0112441,0.000948819 0.0234567,0.00601969 0.0366969,0.0152244 0.0132126,0.00922835 0.0280709,0.0243976 0.044563,0.0455197 0.0202638,0.0259331 0.0323386,0.048378 0.0361811,0.0672835 0.00384646,0.0189094 -0.00065748,0.0354331 -0.0134291,0.0495984"/>
    <line id="_132393552" class="fil1 str1" x1="7.68384" y1="4.6826" x2="7.63524" y2= "4.6254" />
    <path id="_132393312" class="fil1 str1" d="M7.63524 4.6254c0.00520472,-0.0065748 0.00730709,-0.0135472 0.0062874,-0.0208898 -0.00101969,-0.00727165 -0.00498425,-0.0153583 -0.0118858,-0.0241929 -0.00572047,-0.0073189 -0.0110669,-0.0119685 -0.0161378,-0.013937 -0.00504331,-0.002 -0.00914173,-0.00175984 -0.0122677,0.000685039 -0.00226378,0.00176378 -0.00311417,0.0048622 -0.00258268,0.00931496 0.000437008,0.00445669 0.00416929,0.0128031 0.0112126,0.0251772 0.017248,0.0306496 0.0283425,0.0535551 0.0333465,0.0687362 0.00500394,0.0151811 0.00650394,0.027937 0.0043937,0.0382598 -0.00207874,0.0102953 -0.00698819,0.0185472 -0.0148071,0.0246535 -0.00914567,0.00714567 -0.0204409,0.0101063 -0.0337638,0.00895669 -0.0133583,-0.00112205 -0.0270748,-0.00661417 -0.041185,-0.0164409 -0.014063,-0.00977559 -0.0287953,-0.0245157 -0.0441496,-0.0441693 -0.0269409,-0.0344843 -0.0409567,-0.0620236 -0.0419528,-0.0826299 -0.00106299,-0.0206299 0.00494882,-0.0374134 0.0180157,-0.0504409"/>
    <line id="_132393096" class="fil1 str1" x1="7.64845" y1="4.76407" x2="7.6892" y2= "4.82797" />
    <path id="_132392856" class="fil1 str1" d="M7.6892 4.82797c-0.0066811,0.00573228 -0.0107087,0.0119291 -0.0121378,0.0185709 -0.00228346,0.0107323 0.000444882,0.0227205 0.00806299,0.0359134 0.00566142,0.00981102 0.0116457,0.0164646 0.0179882,0.019937 0.00631102,0.00340945 0.0116063,0.00388189 0.0158858,0.00141339 0.00405118,-0.00233858 0.00626772,-0.00694488 0.00655118,-0.0138858 0.000275591,-0.00694882 -0.00346063,-0.0204291 -0.0112756,-0.040563 -0.0126614,-0.0329803 -0.0187795,-0.0581772 -0.0182795,-0.0756299 0.000440945,-0.0175669 0.00677953,-0.029878 0.0190669,-0.0369724 0.0080748,-0.00466142 0.0176339,-0.00575197 0.0286339,-0.00324016 0.0110039,0.00250787 0.0223898,0.00922835 0.0342205,0.020189 0.0117992,0.0109764 0.0244016,0.028063 0.0377992,0.0512756 0.0164567,0.0285 0.0252835,0.0524055 0.0264646,0.0716654 0.00117323,0.0192598 -0.00558661,0.0349961 -0.0202047,0.047248"/>
    <line id="_132392640" class="fil1 str1" x1="7.82197" y1="4.92389" x2="7.7818" y2= "4.86048" />
    <path id="_132392424" class="fil1 str1" d="M7.7818 4.86048c0.0060748,-0.00578346 0.00912598,-0.0123937 0.0091378,-0.0198071 0,-0.00734252 -0.00279528,-0.0158976 -0.00840551,-0.0256102 -0.0046378,-0.00804331 -0.00929134,-0.0133937 -0.0140394,-0.0160472 -0.0047126,-0.00268504 -0.00880709,-0.00301969 -0.0122441,-0.00103543 -0.00248819,0.00144094 -0.00375984,0.00438976 -0.00385433,0.00886614 -0.000188976,0.00447638 0.00235039,0.0132638 0.00759449,0.0264921 0.0128228,0.032752 0.0206142,0.0569764 0.0234606,0.0727087 0.00284646,0.0157323 0.00255512,0.0285669 -0.000972441,0.0385 -0.00349213,0.00990945 -0.00950394,0.0173976 -0.0180945,0.0223543 -0.0100472,0.00580315 -0.0216457,0.00716535 -0.0346772,0.00417323 -0.0130787,-0.00297638 -0.0258937,-0.0103228 -0.0385,-0.0220118 -0.012563,-0.0116417 -0.0250984,-0.0282874 -0.0375748,-0.0498898 -0.021878,-0.0378976 -0.0319252,-0.067122 -0.0300433,-0.0876654 0.0018189,-0.0205669 0.0101063,-0.0363583 0.0248622,-0.0474409"/>
    <path id="_132392208" class="fil17" d="M5.19383 3.44605l-0.0872874 0.0483819 0.00250394 0.0328346 -0.0782835 0.0433898 0.00528346 -0.210205 0.0835315 -0.0463071 0.181122 0.106886 -0.080185 0.0444449 -0.026685 -0.0194252zm-0.0350591 -0.0253976l0 0 -0.0590197 -0.0417992 0.00435039 0.0721024 0.0546693 -0.0303031z"/>
    <path id="_132391536" class="fil18" d="M5.2747 3.2367l0.124469 -0.0380551c0.0244843,-0.00748031 0.0449606,-0.0114055 0.0614016,-0.0117992 0.0164016,-0.000330709 0.0307559,0.00194488 0.0430394,0.00688976 0.0122913,0.00497638 0.022248,0.0120394 0.0299606,0.021248 0.00765354,0.00922047 0.0132795,0.0197283 0.0168937,0.0315551 0.00566142,0.0185315 0.00677559,0.0339016 0.00327559,0.0461417 -0.00344094,0.0122205 -0.00998031,0.0235787 -0.019622,0.0340315 -0.00957087,0.0104685 -0.0207205,0.0189094 -0.0334646,0.0253228 -0.0174016,0.00876378 -0.0335866,0.0154291 -0.0484803,0.0199882l-0.124469 0.0380512 -0.0530039 -0.173374zm0.0957638 0.0136693l0 0 0.0289528 0.0947008 0.0205118 -0.00627165c0.0175433,-0.00536614 0.0296102,-0.010374 0.0362362,-0.0151417 0.00662205,-0.00472047 0.0111063,-0.0108504 0.0134449,-0.0183228 0.00227559,-0.00744882 0.0012874,-0.0181339 -0.00296063,-0.0320197 -0.00561417,-0.0183622 -0.014122,-0.0294961 -0.0255354,-0.0334213 -0.0114764,-0.00390551 -0.0280472,-0.00255118 -0.0497559,0.00409055l-0.0208937 0.00638583z"/>
    <path id="_132391056" class="fil19" d="M5.77526 3.26976l-0.0988228 0.0138898 -0.00943307 0.0315472 -0.0886339 0.0124606 0.0802638 -0.194358 0.0945748 -0.0132953 0.130783 0.164701 -0.0907795 0.0127559 -0.0179528 -0.0277008zm-0.0236339 -0.0362756l0 0 -0.0401102 -0.0601772 -0.0217835 0.068874 0.0618937 -0.00869685z"/>
    <polygon id="_132391800" class="fil20" points="5.91011,3.10336 6.02534,3.10336 6.06983,3.21366 6.11412,3.10336 6.22896,3.10336 6.22896,3.28466 6.15742,3.28466 6.15742,3.14642 6.10191,3.28466 6.03717,3.28466 5.98185,3.14642 5.98185,3.28466 5.91011,3.28466 "/>
    <path id="_132392472" class="fil21" d="M6.46143 3.29452l-0.0985748 -0.0156142 -0.0182402 0.0274134 -0.0884016 -0.014 0.133583 -0.162394 0.0943307 0.0149331 0.0769213 0.19574 -0.0905512 -0.0143425 -0.00906693 -0.0317362zm-0.0119921 -0.0415984l0 0 -0.0207717 -0.0692795 -0.0409646 0.0594961 0.0617362 0.00978346z"/>
    <polygon id="_132391632" class="fil22" points="6.64053,3.16961 6.7165,3.20343 6.70269,3.30813 6.78379,3.2334 6.85958,3.26714 6.8585,3.3775 6.92705,3.29719 7.00267,3.33085 6.87189,3.47107 6.79344,3.43615 6.79446,3.31166 6.70282,3.3958 6.62437,3.36087 "/>
    <path id="_132391344" class="fil23" d="M7.1095 3.59276l-0.0807362 -0.0586575 -0.0287008 0.0161457 -0.0724055 -0.0526063 0.192748 -0.0840591 0.0772638 0.0561378 -0.0203268 0.209327 -0.0741693 -0.0538819 0.00632677 -0.0324055zm0.00820079 -0.0425079l0 0 0.0129488 -0.0711575 -0.0635157 0.0344173 0.0505669 0.0367402z"/>
    <polygon id="_132392400" class="fil1 str1" points="5.19383,3.44605 5.10655,3.49443 5.10905,3.52726 5.03077,3.57065 5.03605,3.36045 5.11958,3.31414 5.3007,3.42103 5.22052,3.46547 "/>
    <polygon id="_132391728" class="fil1 str1" points="5.15878,3.42065 5.09976,3.37885 5.10411,3.45095 "/>
    <line id="_132392376" class="fil1 str1" x1="5.2747" y1="3.2367" x2="5.39917" y2= "3.19864" />
    <path id="_132391464" class="fil1 str1" d="M5.39917 3.19864c0.0244843,-0.00748031 0.0449606,-0.0114055 0.0614016,-0.0117992 0.0164016,-0.000330709 0.0307559,0.00194488 0.0430394,0.00688976 0.0122913,0.00497638 0.022248,0.0120394 0.0299606,0.021248 0.00765354,0.00922047 0.0132795,0.0197283 0.0168937,0.0315551 0.00566142,0.0185315 0.00677559,0.0339016 0.00327559,0.0461417 -0.00344094,0.0122205 -0.00998031,0.0235787 -0.019622,0.0340315 -0.00957087,0.0104685 -0.0207205,0.0189094 -0.0334646,0.0253228 -0.0174016,0.00876378 -0.0335866,0.0154291 -0.0484803,0.0199882"/>
    <polyline id="_132391608" class="fil1 str1" points="5.45217,3.37202 5.3277,3.41007 5.2747,3.2367 "/>
    <polyline id="_132392520" class="fil1 str1" points="5.37046,3.25037 5.39942,3.34507 5.41993,3.3388 "/>
    <path id="_132392088" class="fil1 str1" d="M5.41993 3.3388c0.0175433,-0.00536614 0.0296102,-0.010374 0.0362362,-0.0151417 0.00662205,-0.00472047 0.0111063,-0.0108504 0.0134449,-0.0183228 0.00227559,-0.00744882 0.0012874,-0.0181339 -0.00296063,-0.0320197 -0.00561417,-0.0183622 -0.014122,-0.0294961 -0.0255354,-0.0334213 -0.0114764,-0.00390551 -0.0280472,-0.00255118 -0.0497559,0.00409055"/>
    <line id="_132392160" class="fil1 str1" x1="5.39136" y1="3.24398" x2="5.37046" y2= "3.25037" />
    <polygon id="_132391176" class="fil1 str1" points="5.77526,3.26976 5.67644,3.28365 5.667,3.3152 5.57837,3.32766 5.65863,3.1333 5.75321,3.12001 5.88399,3.28471 5.79321,3.29746 "/>
    <polygon id="_132391560" class="fil1 str1" points="5.75163,3.23349 5.71152,3.17331 5.68973,3.24219 "/>
    <polygon id="_132390936" class="fil1 str1" points="5.91011,3.10336 6.02534,3.10336 6.06983,3.21366 6.11412,3.10336 6.22896,3.10336 6.22896,3.28466 6.15742,3.28466 6.15742,3.14642 6.10191,3.28466 6.03717,3.28466 5.98185,3.14642 5.98185,3.28466 5.91011,3.28466 "/>
    <polygon id="_132391200" class="fil1 str1" points="6.46143,3.29452 6.36286,3.27891 6.34462,3.30632 6.25622,3.29232 6.3898,3.12993 6.48413,3.14486 6.56105,3.3406 6.4705,3.32626 "/>
    <polygon id="_132390984" class="fil1 str1" points="6.44944,3.25292 6.42867,3.18364 6.3877,3.24314 "/>
    <polygon id="_132392256" class="fil1 str1" points="6.64053,3.16961 6.7165,3.20343 6.70269,3.30813 6.78379,3.2334 6.85958,3.26714 6.8585,3.3775 6.92705,3.29719 7.00267,3.33085 6.87189,3.47107 6.79344,3.43615 6.79446,3.31166 6.70282,3.3958 6.62437,3.36087 "/>
    <polygon id="_132392304" class="fil1 str1" points="7.1095,3.59276 7.02877,3.5341 7.00007,3.55024 6.92766,3.49764 7.12041,3.41358 7.19767,3.46972 7.17735,3.67904 7.10318,3.62516 "/>
    <polygon id="_132391152" class="fil1 str1" points="7.1177,3.55025 7.13065,3.47909 7.06714,3.51351 "/>
   </g>
  </g>
 </g>
</svg>
